<svg xmlns="http://www.w3.org/2000/svg" xmlns:xlink="http://www.w3.org/1999/xlink" width="517" height="630" viewBox="0 0 517 630">
  <defs>
    <rect id="boule-laine-a" width="517" height="658" x="0" y="0"/>
    <linearGradient id="boule-laine-c" x1="54.399%" x2="45.599%" y1="99.806%" y2=".194%">
      <stop offset="0%" stop-color="gray" stop-opacity=".25"/>
      <stop offset="53.514%" stop-color="gray" stop-opacity=".12"/>
      <stop offset="100%" stop-color="gray" stop-opacity=".1"/>
    </linearGradient>
  </defs>
  <g fill="none" fill-rule="evenodd" transform="translate(0 -28)">
    <mask id="boule-laine-b" fill="#fff">
      <use xlink:href="#boule-laine-a"/>
    </mask>
    <use fill="#FFF" xlink:href="#boule-laine-a"/>
    <g mask="url(#boule-laine-b)">
      <g transform="translate(0 275)">
        <circle cx="191.408" cy="191.18" r="190.984" fill="url(#boule-laine-c)" fill-rule="nonzero" opacity=".5"/>
        <circle cx="188.5" cy="187.5" r="179.5" fill="#FAD2DB" fill-rule="nonzero"/>
        <path stroke="#65444B" d="M209 62C209 62 311.65751 70.6381357 327 218M51.8259118 253C51.8259118 253 4.51570412 134.267559 159 53M93.6695511 225C93.6695511 225 73.19254 162.579884 118 123M181 117C181 117 219.91361 146.57432 207.587187 231M254 37C254 37 322.700341 67.579176 349 177M159 44.5722177C159 44.5722177 198.007709 24.349738 226 50M130 274.31598C130 274.31598 168.368163 313.622507 305 259M86 59C86 59 31.2385336 101.056373 32.0080344 180M77.9590762 253C77.9590762 253 67.4783782 277.536018 95 297M321 278C321 278 307.660077 325.184484 280 321.829174M232 142C232 142 256.472254 165.511399 244.885328 196M130 155C130 155 118.152064 189.330149 127.754212 215M152 148C152 148 175.776739 186.030885 159.018996 208" opacity=".2"/>
      </g>
      <path fill="#FAD2DB" fill-rule="nonzero" d="M185.937199,351.949603 C172.829531,353.1009 158.414575,346.608506 155.582412,333.661042 C153.946458,326.182104 156.531202,318.871215 159.030947,311.801987 C161.770628,304.053417 164.137134,297.36118 160.7138,291.849235 C159.155305,289.33956 156.431716,287.436296 153.721509,285.754452 C150.18953,283.563636 146.399257,281.540084 142.733842,279.583624 C136.399903,276.201912 129.849761,272.705223 124.027618,268.068989 C112.584639,258.956195 106.796113,246.802335 108.542903,235.557604 C110.052205,225.841102 116.64336,218.399018 123.017382,211.201536 C129.55395,203.820145 135.728049,196.848365 135.581771,188.312424 C135.383855,176.703596 123.47539,168.36513 112.968914,161.008993 L111.329562,159.858608 C98.5091781,150.845591 86.1931218,135.204623 93.6757689,120.790239 C96.2879248,115.758231 100.648158,112.529176 104.864601,109.406253 C107.706061,107.492832 110.297909,105.235007 112.580628,102.684626 C120.285678,93.1727936 116.349456,79.080936 114.299659,73.4637762 C112.740969,69.19423 110.703829,64.932969 108.733461,60.8133143 C105.823388,54.7271748 102.814174,48.4338512 101.065951,41.6452147 L100.778878,40.5312323 C96.5655336,24.1910931 96.5698041,23.5806439 101.015861,7.9034419 L101.570212,5.9469249 L108.216523,7.81599634 L107.660724,9.7779396 C103.636559,23.9671007 103.636559,23.9671007 107.466495,38.8219791 L107.75413,39.9368463 C109.336091,46.0789288 112.070983,51.7987967 114.966735,57.854389 C117.006777,62.1211755 119.116868,66.5340814 120.788777,71.1146273 C125.968399,85.3073836 124.935253,98.3909879 117.953894,107.008472 C115.314462,110.018664 112.300273,112.680762 108.984345,114.930279 C105.232463,117.70882 101.688421,120.334163 99.8090892,123.954423 C93.9893773,135.164638 106.813574,148.263796 115.308445,154.236246 L116.936954,155.378921 C128.205006,163.268616 142.227982,173.087751 142.486032,188.197567 C142.67752,199.402163 135.315212,207.715777 128.195007,215.755617 C122.215231,222.508861 116.567184,228.886965 115.366573,236.614084 C113.761292,246.948134 121.01409,256.861696 128.33702,262.694225 C133.665357,266.937224 139.653065,270.133465 145.992529,273.517587 C149.755386,275.5262 153.646199,277.603566 157.369602,279.913464 C160.793148,282.037624 164.278618,284.515912 166.585306,288.230148 C171.748258,296.543308 168.594382,305.46457 165.544,314.091452 C163.26409,320.538961 161.110961,326.628451 162.329129,332.197216 C164.530288,342.26054 177.776026,346.842279 188.284255,344.662513 C196.883805,342.877857 204.451631,338.171974 212.463435,333.190952 C215.054583,331.579362 217.734281,329.913731 220.432777,328.367882 C235.161513,319.939252 248.508349,317.88219 259.032379,322.415776 C262.346656,323.972389 265.483145,325.880279 268.387544,328.106413 C270.649324,329.820931 273.049513,331.346039 275.563541,332.666124 C287.426881,337.827604 301.274658,333.037314 307.372355,321.662664 C307.878572,320.612011 308.334385,319.483851 308.816778,318.289752 C310.348659,314.497617 312.085119,310.199832 316.051343,307.504632 C320.204648,304.683096 322.132492,311.703678 319.942691,313.190374 C317.708349,314.708952 316.500611,317.697727 315.222428,320.862281 C314.720247,322.105353 314.200616,323.39139 313.597208,324.643347 C305.840025,339.460021 287.842133,345.686314 272.534363,338.848861 C269.673181,337.364713 266.94243,335.643061 264.371072,333.702164 C261.861116,331.76712 259.153484,330.101206 256.293106,328.732066 C245.624894,324.132121 232.774616,329.241273 223.874437,334.335968 C221.284357,335.818313 218.65934,337.451219 216.120339,339.029297 C207.948181,344.111139 199.497793,349.364871 189.694168,351.398897 C188.453758,351.655521 187.19928,351.839405 185.937199,351.949603 Z" transform="rotate(64 264.629 272.633)"/>
    </g>
  </g>
</svg>
