<svg xmlns="http://www.w3.org/2000/svg" xmlns:xlink="http://www.w3.org/1999/xlink" width="529" height="692" viewBox="0 0 529 692">
  <defs>
    <rect id="cat-background-a" width="535" height="692" x="0" y="0"/>
  </defs>
  <g fill="none" fill-rule="evenodd" transform="translate(-6)">
    <mask id="cat-background-b" fill="#fff">
      <use xlink:href="#cat-background-a"/>
    </mask>
    <use fill="#FFF" xlink:href="#cat-background-a"/>
    <g mask="url(#cat-background-b)">
      <g transform="translate(-146 23)">
        <path fill="#FBC96C" fill-rule="nonzero" d="M448.660105,653.409493 C473.057634,655.869924 497.529945,650.276568 521.071784,643.389623 C567.749738,629.734424 616.183277,608.042459 640.379966,565.688532 C649.217225,550.219758 654.233955,532.901115 659.172539,515.770334 C669.14201,481.188648 679.179124,446.20857 680.783056,410.242411 C682.503786,370.673554 673.964885,331.334022 656.002322,296.075198 C653.365599,290.748911 648.896895,286.562467 643.423445,284.290847 C633.893215,280.527967 628.655284,285.66868 624.494498,291.025028 C599.254587,323.517312 601.868123,368.748737 599.760299,409.906087 C597.637225,451.160783 589.590686,491.890953 575.870062,530.834281 C570.044346,547.356257 562.364657,564.55247 547.571749,573.850579 C538.510791,579.545863 527.727695,581.633558 517.222396,583.615108 C501.511866,586.578557 484.361024,589.341887 470.276605,581.75056 C455.853425,573.976628 446.314781,553.832587 429.671333,550.483754 C413.2051,547.170581 390.732979,564.497144 383.382108,579.095474 C363.472976,618.633681 415.998604,650.115234 448.660105,653.409493 Z"/>
        <path fill="#000" fill-rule="nonzero" d="M169.706088 290.545721C160.585689 296.223348 149.732256 298.304897 139.158538 300.280404 128.296569 302.309467 116.770406 304.1612 106.010839 302.721482 119.522071 308.324892 135.344893 305.871918 149.95988 303.141494 160.533666 301.166004 171.387031 299.084439 180.50743 293.406812 195.397053 284.137275 203.127207 266.993637 208.990176 250.522003 222.801158 211.697992 230.900356 171.09233 233.036703 129.963749 235.158406 88.9321869 232.528491 43.8392983 257.933445 11.4462672 260.876331 7.69426587 264.389596 4.1164644 269.525709 3.58135647 268.463055 2.91795299 267.345444 2.34595129 266.185035 1.87157404 256.592057-1.87995073 251.319038 3.24495477 247.132103 8.58517642 221.727166 40.9781905 224.357064 86.0710962 222.235361 127.102658 220.099029 168.231237 211.999848 208.836898 198.188885 247.660912 192.325882 264.132614 184.59571 281.276167 169.706088 290.545721zM15.2452257 298.635955C22.0833399 285.183886 41.9168614 269.444722 57.9696 269.741232 55.7859515 268.594112 53.4520459 267.755813 51.0354304 267.250597 34.4615638 263.947336 11.8423517 281.220959 4.44388327 295.774847-14.2483673 332.541117 30.4871477 362.309391 63.268314 368.813549 32.4705751 358.734211-1.45307673 331.481725 15.2452257 298.635955z" opacity=".1" transform="translate(380 284)"/>
        <polygon fill="#000" fill-rule="nonzero" points="207.927 358.366 524.454 358.257 524.423 449.836 207.895 449.945" opacity=".1" transform="rotate(26.478 366.175 404.1)"/>
        <polygon fill="#FFF3E3" fill-rule="nonzero" points="209.783 358.803 526.31 358.695 526.281 441.948 209.754 442.057" transform="rotate(26.478 368.032 400.376)"/>
        <circle cx="428.5" cy="340.5" r="49.5" fill="#FFF3E3" fill-rule="nonzero"/>
        <path fill="#FBC96C" fill-rule="nonzero" d="M388.934491,79.0293986 C388.934491,79.0293986 475.135687,102.46313 506.522116,137.76291 C506.522116,137.76291 557.372669,94.4829094 580.890208,106.229608 C604.407747,117.976307 569.295009,208.362404 569.295009,208.362404 L538.176234,349.799972 C538.176234,349.799972 554.360158,691.468289 335.130893,758.569736 C115.901629,825.671183 -41.1792887,550.985032 9.58204649,448.792604 C60.3433817,346.600176 212.805807,157.847728 212.805807,157.847728 C212.805807,157.847728 345.744657,8.40007192 369.232445,0.509300801 C392.720233,-7.38147032 388.934491,79.0293986 388.934491,79.0293986 Z"/>
        <path fill="#FFF" fill-rule="nonzero" d="M488.391045 523.43369C501.794367 466.40533 507.906897 407.912306 506.582723 349.350885L501.651765 371.657107C502.830307 422.581845 498.383234 473.481156 488.391045 523.43369L488.391045 523.43369zM.819470213 434.075309C51.7553463 332.013929 175.163551 179.951486 175.163551 179.951486 175.163551 179.951486 308.558842 30.6954452 332.127114 22.8148922 355.695523 14.934017 351.896345 101.233968 351.896345 101.233968 351.896345 101.233968 438.394289 124.63769 469.88874 159.892343 469.88874 159.892343 520.914446 116.668074 544.511943 128.399264 553.671728 132.952926 553.953012 149.347394 550.886208 167.693973 557.712669 142.023502 562.266089 112.467934 549.442918 106.093059 525.845404 94.3618522 474.819697 137.586137 474.819697 137.586137 443.325246 102.331485 356.827303 78.9277459 356.827303 78.9277459 356.827303 78.9277459 360.626464-7.37218822 337.058072.508670032 313.4898 8.38924 180.094508 157.645281 180.094508 157.645281 180.094508 157.645281 56.686338 309.707724 5.7504279 411.769103 1.14880447 420.989418-.641405775 437.002485.819470213 434.075309z" opacity=".1" transform="translate(30)"/>
        <circle cx="472" cy="293" r="17" fill="#131747" fill-rule="nonzero"/>
        <circle cx="293" cy="201" r="17" fill="#131747" fill-rule="nonzero"/>
        <ellipse cx="378.79" cy="265.696" fill="#FAD2DB" fill-rule="nonzero" rx="17.574" ry="26.374" transform="rotate(-63.522 378.79 265.696)"/>
        <polygon fill="#FBC96C" fill-rule="nonzero" points="555.366 285.788 564.155 285.79 564.171 366.852 555.382 366.85" transform="rotate(-76.039 559.768 326.32)"/>
        <polygon fill="#FBC96C" fill-rule="nonzero" points="543.621 314.9 552.404 314.902 552.424 404.567 543.64 404.565" transform="rotate(-74.788 548.022 359.734)"/>
        <polygon fill="#FBC96C" fill-rule="nonzero" points="205.087 85.04 213.87 85.043 213.91 179.7 205.128 179.696" transform="rotate(-41.721 209.499 132.37)"/>
        <polygon fill="#FBC96C" fill-rule="nonzero" points="177.594 100.138 186.382 100.142 186.429 215.761 177.641 215.757" transform="rotate(-54.776 182.011 157.95)"/>
        <path fill="#000" fill-rule="nonzero" d="M230 485.015124C230 485.015124 225.369918 630.512652 147.169995 604.997615 68.9700722 579.482577 157.928284 486.500996 157.928284 486.500996 157.928284 486.500996 167.136257 450.503193 150.270627 440M295.085834 513C295.085834 513 173.356792 593.959201 235.837125 645.428938 298.317458 696.898675 331.33847 573.686553 331.33847 573.686553 331.33847 573.686553 357.258377 546.955577 375 555.406155" opacity=".1"/>
        <path fill="#FBC96C" fill-rule="nonzero" d="M222 477.015128C222 477.015128 217.369918 622.512654 139.169992 596.997614 60.9700668 571.482574 149.928299 478.501 149.928299 478.501 149.928299 478.501 159.136272 442.503177 142.270642 432M303.085804 513C303.085804 513 181.356802 593.959213 243.837123 645.428941 306.317443 696.898668 339.338507 573.686562 339.338507 573.686562 339.338507 573.686562 365.258385 546.955498 383 555.406161"/>
        <polygon fill="#58555D" fill-rule="nonzero" points="133.452 583.488 159.376 583.497 159.377 583.597 133.452 583.588" opacity=".5" transform="rotate(-63.522 146.414 583.542)"/>
        <polygon fill="#58555D" fill-rule="nonzero" points="245.3 632.953 271.225 632.961 271.225 633.061 245.301 633.053" opacity=".5" transform="rotate(-63.522 258.263 633.007)"/>
        <polygon fill="#58555D" fill-rule="nonzero" points="265.186 642.849 291.111 642.858 291.111 642.958 265.186 642.949" opacity=".5" transform="rotate(-63.522 278.149 642.904)"/>
        <polygon fill="#58555D" fill-rule="nonzero" points="250.591 634.711 286.878 634.724 286.878 634.824 250.591 634.811" opacity=".5" transform="rotate(-63.522 268.735 634.768)"/>
        <path fill="#000" fill-rule="nonzero" d="M307.218976,355.204078 C286.570243,345.038029 266.841324,333.135781 248.249561,319.628453 C189.66533,276.99389 158.127646,227.084754 157,225.25512 L166.084396,214 C166.347946,214.426973 201.519586,266.944557 257.894587,307.816644 C309.786469,345.436309 408.862358,390.674684 535.358025,385.421276 L536,400.579485 C444.190882,404.392624 360.983895,381.714926 307.218976,355.204078 Z" opacity=".1"/>
        <path fill="#4D8AF0" fill-rule="nonzero" d="M310.2582,367 L310,366.153295 C312.706178,365.596233 315.019613,363.68104 316.253026,360.976684 C317.486439,358.272327 317.497938,355.089917 316.284107,352.374887 L317.021641,352 C318.333292,354.944674 318.325711,358.391623 317.001125,361.3293 C315.676538,364.266976 313.185192,366.362162 310.2582,367 L310.2582,367 Z"/>
        <path fill="#000" fill-rule="nonzero" d="M310.2582,367 L310,366.153295 C312.706178,365.596233 315.019613,363.68104 316.253026,360.976684 C317.486439,358.272327 317.497938,355.089917 316.284107,352.374887 L317.021641,352 C318.333292,354.944674 318.325711,358.391623 317.001125,361.3293 C315.676538,364.266976 313.185192,366.362162 310.2582,367 L310.2582,367 Z" opacity=".1"/>
        <path fill="#EAE880" fill-rule="nonzero" d="M539.357988,382.421276 C412.861799,387.674684 313.785484,342.436275 261.893403,304.816644 C205.51817,263.944557 170.346385,211.426973 170.082833,211 L157,218.903308 C158.127634,220.732909 193.663865,273.99394 252.248338,316.628453 C270.840178,330.135781 290.569178,342.038029 311.217997,352.204078 C364.983138,378.714926 448.190469,401.392624 540,397.579485 L539.357988,382.421276 Z M314.268193,352.44473 C313.426405,352.029619 313.083931,351.017579 313.503251,350.184262 C313.922571,349.350945 314.944902,349.011903 315.786705,349.426985 C316.628508,349.842066 316.971019,350.854094 316.551728,351.687426 C316.350368,352.087625 315.996655,352.392244 315.568405,352.534268 C315.140156,352.676291 314.672453,352.644083 314.268193,352.44473 Z"/>
        <path fill="#FAD2DB" fill-rule="nonzero" d="M288.786557,369.422134 L288.786557,369.422134 C284.601425,377.824287 288.019987,388.028298 296.422134,392.213443 L296.422134,392.213443 C304.824287,396.398575 315.028298,392.980013 319.213443,384.577866 L319.213443,384.577866 C323.398575,376.175713 319.980013,365.971702 311.577866,361.786557 L311.577866,361.786557 C303.175713,357.601425 292.971702,361.019987 288.786557,369.422134 Z M307.788954,369.39324 C306.763404,368.882415 306.14655,367.804111 306.226032,366.661142 C306.305514,365.518173 307.065679,364.535627 308.152062,364.171665 C309.238445,363.807703 310.4371,364.134002 311.189097,364.998408 C311.941093,365.862814 312.098336,367.095097 311.587503,368.120644 C310.889982,369.520982 309.189353,370.090757 307.788988,369.393291 L307.788954,369.39324 Z" opacity=".1"/>
        <path fill="#FAD2DB" fill-rule="nonzero" d="M292.628919,367.590769 L292.628919,367.590769 C288.813064,375.251556 291.929989,384.555213 299.590769,388.371081 L299.590769,388.371081 C307.251556,392.186936 316.555213,389.070011 320.371081,381.409231 L320.371081,381.409231 C324.186936,373.748444 321.070011,364.444787 313.409231,360.628919 L313.409231,360.628919 C305.748444,356.813064 296.444787,359.929989 292.628919,367.590769 L292.628919,367.590769 Z M309.954624,367.564477 C308.677825,366.928501 308.158334,365.37789 308.794309,364.101091 C309.430284,362.824291 310.980895,362.3048 312.257695,362.940774 C313.534495,363.576749 314.053987,365.127359 313.418012,366.40416 C313.112606,367.017301 312.576139,367.484008 311.926628,367.70161 C311.277116,367.919212 310.567765,367.869883 309.954624,367.564477 L309.954624,367.564477 Z"/>
        <path fill="#4D8AF0" fill-rule="nonzero" d="M306.965365,367 C305.658121,364.042605 305.679558,360.588206 307.023385,357.650531 C308.367213,354.712857 310.881003,352.625124 313.827057,352 L314,352.874508 C311.280984,353.446936 308.962833,355.378392 307.73423,358.095075 C306.505627,360.811759 306.507911,364.00114 307.740403,366.715711 L306.965365,367 Z"/>
        <path fill="#FBC96C" fill-rule="nonzero" d="M517,377.563024 C244.302338,396.500615 180,222 180,222 L517,377.563024 Z"/>
      </g>
    </g>
  </g>
</svg>
