<svg xmlns="http://www.w3.org/2000/svg" width="15" height="15" viewBox="0 0 15 15">
  <g fill="#FFF" fill-rule="evenodd">
    <path d="M1.73864322,0.298304015 L14.701696,13.2613568 C15.0994347,13.6590954 15.0994347,14.3039573 14.701696,14.701696 C14.3039573,15.0994347 13.6590954,15.0994347 13.2613568,14.701696 L0.298304015,1.73864322 C-0.0994346717,1.34090452 -0.0994346717,0.696042706 0.298304015,0.298304015 C0.696042706,-0.0994346717 1.34090452,-0.0994346717 1.73864322,0.298304015 Z"/>
    <path d="M0.298304015,13.2613568 L13.2613568,0.298304015 C13.6590954,-0.0994346717 14.3039573,-0.0994346717 14.701696,0.298304015 C15.0994347,0.696042706 15.0994347,1.34090452 14.701696,1.73864322 L1.73864322,14.701696 C1.34090452,15.0994347 0.696042706,15.0994347 0.298304015,14.701696 C-0.0994346717,14.3039573 -0.0994346717,13.6590954 0.298304015,13.2613568 Z"/>
  </g>
</svg>
