<svg xmlns="http://www.w3.org/2000/svg" width="15" height="15" viewBox="0 0 15 15">
  <g fill="#A8BABE" fill-rule="evenodd" transform="translate(.333 -.167)">
    <path d="M2.04545455,0.681818182 L14.3181818,12.9545455 C14.6947396,13.3311032 14.6947396,13.941624 14.3181818,14.3181818 C13.941624,14.6947396 13.3311032,14.6947396 12.9545455,14.3181818 L0.681818182,2.04545455 C0.305260398,1.66889676 0.305260398,1.05837597 0.681818182,0.681818182 C1.05837597,0.305260398 1.66889676,0.305260398 2.04545455,0.681818182 Z"/>
    <path d="M0.681818182,12.9545455 L12.9545455,0.681818182 C13.3311032,0.305260398 13.941624,0.305260398 14.3181818,0.681818182 C14.6947396,1.05837597 14.6947396,1.66889676 14.3181818,2.04545455 L2.04545455,14.3181818 C1.66889676,14.6947396 1.05837597,14.6947396 0.681818182,14.3181818 C0.305260398,13.941624 0.305260398,13.3311032 0.681818182,12.9545455 Z"/>
  </g>
</svg>
